<?xml version="1.0" encoding="UTF-8" standalone="no"?><!DOCTYPE svg PUBLIC "-//W3C//DTD SVG 1.1//EN" "http://www.w3.org/Graphics/SVG/1.1/DTD/svg11.dtd"><!-- Generated by graphviz version 2.40.1 (20161225.0304)
 --><!-- Title: G Pages: 1 --><svg xmlns="http://www.w3.org/2000/svg" xmlns:xlink="http://www.w3.org/1999/xlink" width="330pt" height="188pt" viewBox="0.00 0.00 330.49 188.00">
<g id="graph0" class="graph" transform="scale(1 1) rotate(0) translate(4 184)">
<title>G</title>
<polygon fill="#ffffff" stroke="transparent" points="-4,4 -4,-184 326.4881,-184 326.4881,4 -4,4"/>
<!-- a -->
<g id="node1" class="node">
<title>a</title>
<polygon fill="none" stroke="#000000" points="73.3094,-180 19.3094,-180 19.3094,-144 73.3094,-144 73.3094,-180"/>
<text text-anchor="middle" x="46.3094" y="-157.8" font-family="Times,serif" font-size="14.00" fill="#000000">int a</text>
</g>
<!-- ab_sum -->
<g id="node5" class="node">
<title>ab_sum</title>
<ellipse fill="none" stroke="#000000" cx="69.3094" cy="-90" rx="69.1193" ry="18"/>
<text text-anchor="middle" x="69.3094" y="-85.8" font-family="Times,serif" font-size="14.00" fill="#000000">ab_sum [a + b]</text>
</g>
<!-- a&#45;&gt;ab_sum -->
<g id="edge1" class="edge">
<title>a-&gt;ab_sum</title>
<path fill="none" stroke="#000000" d="M52.1133,-143.8314C54.6002,-136.0463 57.5625,-126.7729 60.3219,-118.1347"/>
<polygon fill="#000000" stroke="#000000" points="63.7184,-119.0041 63.4274,-108.4133 57.0503,-116.874 63.7184,-119.0041"/>
</g>
<!-- b -->
<g id="node2" class="node">
<title>b</title>
<polygon fill="none" stroke="#000000" points="145.3094,-180 91.3094,-180 91.3094,-144 145.3094,-144 145.3094,-180"/>
<text text-anchor="middle" x="118.3094" y="-157.8" font-family="Times,serif" font-size="14.00" fill="#000000">int b</text>
</g>
<!-- b&#45;&gt;ab_sum -->
<g id="edge2" class="edge">
<title>b-&gt;ab_sum</title>
<path fill="none" stroke="#000000" d="M105.9446,-143.8314C100.2726,-135.497 93.4397,-125.4567 87.2191,-116.3162"/>
<polygon fill="#000000" stroke="#000000" points="90.0203,-114.2114 81.5005,-107.9134 84.2333,-118.1498 90.0203,-114.2114"/>
</g>
<!-- x -->
<g id="node3" class="node">
<title>x</title>
<polygon fill="none" stroke="#000000" points="241.3094,-180 187.3094,-180 187.3094,-144 241.3094,-144 241.3094,-180"/>
<text text-anchor="middle" x="214.3094" y="-157.8" font-family="Times,serif" font-size="14.00" fill="#000000">float x</text>
</g>
<!-- xy_product -->
<g id="node6" class="node">
<title>xy_product</title>
<ellipse fill="none" stroke="#000000" cx="239.3094" cy="-90" rx="83.3578" ry="18"/>
<text text-anchor="middle" x="239.3094" y="-85.8" font-family="Times,serif" font-size="14.00" fill="#000000">xy_product [x * y]</text>
</g>
<!-- x&#45;&gt;xy_product -->
<g id="edge3" class="edge">
<title>x-&gt;xy_product</title>
<path fill="none" stroke="#000000" d="M220.618,-143.8314C223.3211,-136.0463 226.541,-126.7729 229.5404,-118.1347"/>
<polygon fill="#000000" stroke="#000000" points="232.9421,-119.0081 232.9159,-108.4133 226.3294,-116.7119 232.9421,-119.0081"/>
</g>
<!-- y -->
<g id="node4" class="node">
<title>y</title>
<polygon fill="none" stroke="#000000" points="313.3094,-180 259.3094,-180 259.3094,-144 313.3094,-144 313.3094,-180"/>
<text text-anchor="middle" x="286.3094" y="-157.8" font-family="Times,serif" font-size="14.00" fill="#000000">float y</text>
</g>
<!-- y&#45;&gt;xy_product -->
<g id="edge4" class="edge">
<title>y-&gt;xy_product</title>
<path fill="none" stroke="#000000" d="M274.4493,-143.8314C269.0088,-135.497 262.4547,-125.4567 256.488,-116.3162"/>
<polygon fill="#000000" stroke="#000000" points="259.4,-114.374 251.0029,-107.9134 253.5383,-118.2004 259.4,-114.374"/>
</g>
<!-- overflow -->
<g id="node7" class="node">
<title>overflow</title>
<ellipse fill="none" stroke="#000000" cx="154.3094" cy="-18" rx="139.0709" ry="18"/>
<text text-anchor="middle" x="154.3094" y="-13.8" font-family="Times,serif" font-size="14.00" fill="#000000">overflow [ab_sum &gt; xy_product]</text>
</g>
<!-- ab_sum&#45;&gt;overflow -->
<g id="edge6" class="edge">
<title>ab_sum-&gt;overflow</title>
<path fill="none" stroke="#000000" d="M89.8855,-72.5708C100.5044,-63.576 113.6377,-52.4513 125.2706,-42.5976"/>
<polygon fill="#000000" stroke="#000000" points="127.6668,-45.1547 133.0351,-36.0206 123.1424,-39.8134 127.6668,-45.1547"/>
</g>
<!-- xy_product&#45;&gt;overflow -->
<g id="edge5" class="edge">
<title>xy_product-&gt;overflow</title>
<path fill="none" stroke="#000000" d="M218.2982,-72.2022C207.673,-63.2021 194.6162,-52.1423 183.0739,-42.3652"/>
<polygon fill="#000000" stroke="#000000" points="185.2662,-39.6354 175.3735,-35.8425 180.7418,-44.9767 185.2662,-39.6354"/>
</g>
</g>
</svg>